<svg width="140" height="32" viewBox="0 0 140 32" fill="none" xmlns="http://www.w3.org/2000/svg">
<path d="M1 8C1 4.13401 4.13401 1 8 1H132C135.866 1 139 4.13401 139 8V24C139 27.866 135.866 31 132 31H8C4.13401 31 1 27.866 1 24V8Z" fill="#D9D9D9" stroke="#D9D9D9" stroke-width="2"/>
<path d="M26.5651 22C26.3411 22 26.1545 21.9253 26.0051 21.776C25.8558 21.616 25.7811 21.4187 25.7811 21.184V13.04L26.0691 13.136L22.6131 17.552L22.5331 17.344H28.3571C28.5705 17.344 28.7465 17.4187 28.8851 17.568C29.0345 17.7067 29.1091 17.8827 29.1091 18.096C29.1091 18.2987 29.0345 18.4693 28.8851 18.608C28.7465 18.7467 28.5705 18.816 28.3571 18.816H21.4291C21.2371 18.816 21.0558 18.7413 20.8851 18.592C20.7145 18.432 20.6291 18.2453 20.6291 18.032C20.6291 17.8293 20.6985 17.648 20.8371 17.488L25.9251 11.12C25.9998 11.0133 26.0958 10.9333 26.2131 10.88C26.3305 10.8267 26.4531 10.8 26.5811 10.8C26.8158 10.8 27.0078 10.88 27.1571 11.04C27.3065 11.1893 27.3811 11.3813 27.3811 11.616V21.184C27.3811 21.4187 27.3011 21.616 27.1411 21.776C26.9811 21.9253 26.7891 22 26.5651 22Z" fill="black"/>
</svg>
