<svg width="72" height="72" viewBox="0 0 72 72" fill="none" xmlns="http://www.w3.org/2000/svg">
<g clip-path="url(#clip0_1141_2767)">
<path d="M71.9563 24C66.9853 24 59.3263 24 54.3463 21.852L68.0773 8.121L63.8353 3.879L50.1043 17.61C47.9563 12.63 47.9563 4.971 47.9563 0H41.9563C41.8551 4.37258 42.1008 8.74629 42.6913 13.08C32.6053 6.984 22.8493 7.764 14.9953 15.618C4.38728 26.226 -4.28872 63.108 2.27828 69.678C4.98528 71.5085 8.25544 72.3156 11.5033 71.955C25.0843 71.955 48.2863 65.013 56.3383 56.955C64.1923 49.101 64.9693 39.342 58.8763 29.259C63.2098 29.8514 67.5835 30.0992 71.9563 30V24ZM52.0963 52.719C42.6313 62.187 10.5013 68.181 6.57728 65.499C3.76928 61.452 9.77228 29.325 19.2373 19.86C20.5836 18.3691 22.219 17.1675 24.0442 16.3284C25.8694 15.4894 27.8461 15.0302 29.8543 14.979C35.2003 14.979 41.0773 18.165 47.4373 24.522C58.3363 35.424 59.9053 44.91 52.0963 52.719ZM40.8643 31.092C41.5628 31.7912 41.9552 32.7391 41.9552 33.7275C41.9552 34.7159 41.5628 35.6638 40.8643 36.363C38.3975 37.6855 35.7231 38.5773 32.9563 39C33.379 36.2332 34.2708 33.5588 35.5933 31.092C36.2925 30.3935 37.2404 30.0011 38.2288 30.0011C39.2171 30.0011 40.1651 30.3935 40.8643 31.092ZM19.8643 52.092C20.5628 52.7912 20.9552 53.7391 20.9552 54.7275C20.9552 55.7159 20.5628 56.6638 19.8643 57.363C17.3975 58.6855 14.7231 59.5773 11.9563 60C12.379 57.2332 13.2708 54.5588 14.5933 52.092C15.2925 51.3935 16.2404 51.0011 17.2288 51.0011C18.2171 51.0011 19.1651 51.3935 19.8643 52.092ZM49.8643 40.092C50.5628 40.7912 50.9552 41.7391 50.9552 42.7275C50.9552 43.7159 50.5628 44.6638 49.8643 45.363C47.3975 46.6855 44.7231 47.5773 41.9563 48C42.379 45.2332 43.2708 42.5588 44.5933 40.092C45.2925 39.3935 46.2404 39.0011 47.2288 39.0011C48.2171 39.0011 49.1651 39.3935 49.8643 40.092ZM31.8643 27.363C29.3975 28.6855 26.7231 29.5773 23.9563 30C24.379 27.2332 25.2708 24.5588 26.5933 22.092C27.2923 21.393 28.2403 21.0003 29.2288 21.0003C30.2173 21.0003 31.1653 21.393 31.8643 22.092C32.5633 22.791 32.9559 23.739 32.9559 24.7275C32.9559 25.716 32.5633 26.664 31.8643 27.363ZM25.8643 37.092C26.5628 37.7912 26.9552 38.7391 26.9552 39.7275C26.9552 40.7159 26.5628 41.6638 25.8643 42.363C23.3975 43.6855 20.7231 44.5773 17.9563 45C18.379 42.2332 19.2708 39.5588 20.5933 37.092C21.2925 36.3935 22.2404 36.0011 23.2288 36.0011C24.2171 36.0011 25.1651 36.3935 25.8643 37.092ZM34.8643 46.092C35.5628 46.7912 35.9552 47.7391 35.9552 48.7275C35.9552 49.7159 35.5628 50.6638 34.8643 51.363C32.3975 52.6855 29.7231 53.5773 26.9563 54C27.379 51.2332 28.2708 48.5588 29.5933 46.092C30.2925 45.3935 31.2404 45.0011 32.2288 45.0011C33.2171 45.0011 34.1651 45.3935 34.8643 46.092Z" fill="#6A994E"/>
</g>
<defs>
<clipPath id="clip0_1141_2767">
<rect width="72" height="72" fill="white"/>
</clipPath>
</defs>
</svg>
